<?xml version="1.0" encoding="utf-8"?>
<!-- Generator: Adobe Illustrator 15.0.0, SVG Export Plug-In . SVG Version: 6.00 Build 0)  -->
<!DOCTYPE svg PUBLIC "-//W3C//DTD SVG 1.1//EN" "http://www.w3.org/Graphics/SVG/1.1/DTD/svg11.dtd">
<svg version="1.1" id="svg_x5F_image" xmlns="http://www.w3.org/2000/svg" xmlns:xlink="http://www.w3.org/1999/xlink" x="0px"
	 y="0px" width="76px" height="76px" viewBox="0 0 76 76" enable-background="new 0 0 76 76" xml:space="preserve">
<circle fill="none" stroke="#FFFFFF" stroke-width="2" stroke-linecap="round" stroke-linejoin="round" stroke-miterlimit="10" cx="12.5" cy="22.167" r="8"/>
<path fill="none" stroke="#FFFFFF" stroke-width="2" stroke-linecap="round" stroke-linejoin="round" stroke-miterlimit="10" d="
	M8.5,29c0,0-7.5,7-7.5,9s0,12,0,13.125S1.375,53.5,6.125,53.5"/>
<path fill="none" stroke="#FFFFFF" stroke-width="2" stroke-linecap="round" stroke-linejoin="round" stroke-miterlimit="10" d="
	M17.125,29c0,0,7.5,7,7.5,9s0,12,0,13.125S24.25,53.5,19.5,53.5"/>
<path fill="none" stroke="#FFFFFF" stroke-width="2" stroke-linecap="round" stroke-linejoin="round" stroke-miterlimit="10" d="
	M6.125,41.875c0,0,0,29.875,0,31s1.5,1.875,3,1.875s3.25-0.5,3.25-2s0-22.625,0-22.625"/>
<path fill="none" stroke="#FFFFFF" stroke-width="2" stroke-linecap="round" stroke-linejoin="round" stroke-miterlimit="10" d="
	M12.375,72.75c0,0,1.875,2,3.375,2s3.25-0.25,3.25-2s0-30.625,0-30.625"/>
<polygon fill="none" stroke="#FFFFFF" stroke-width="2" stroke-linecap="round" stroke-linejoin="round" stroke-miterlimit="10" points="
	14.361,42.264 12.375,30.625 10.388,42.264 12.375,44.25 "/>
<path fill="none" stroke="#FFFFFF" stroke-width="2" stroke-linecap="round" stroke-linejoin="round" stroke-miterlimit="10" d="
	M75.25,70.125c0,2.762-2.238,5-5,5H36c-2.761,0-5-2.238-5-5v-19c0-2.762,2.239-5,5-5h34.25c2.762,0,5,2.238,5,5V70.125z"/>
<path fill="none" stroke="#FFFFFF" stroke-width="2" stroke-linecap="round" stroke-linejoin="round" stroke-miterlimit="10" d="
	M32.5,47.5c0,0,13.125,12.875,15.25,14.625s8.75,2.125,11.25,0S73.5,47.75,73.5,47.75"/>
<line fill="none" stroke="#FFFFFF" stroke-width="2" stroke-linecap="round" stroke-linejoin="round" stroke-miterlimit="10" x1="46.625" y1="61.5" x2="32.625" y2="73.625"/>
<line fill="none" stroke="#FFFFFF" stroke-width="2" stroke-linecap="round" stroke-linejoin="round" stroke-miterlimit="10" x1="59.875" y1="61.25" x2="73.625" y2="73.875"/>
<path fill="none" stroke="#FFFFFF" stroke-width="2" stroke-linecap="round" stroke-linejoin="round" stroke-miterlimit="10" d="
	M8,15.5c0,0,0-11.125,0-12.125s0.875-2.25,2.625-2.25c0,0,55.625,0,57.5,0s3,0.875,3,2.5s0,42.375,0,42.375"/>
<line fill="none" stroke="#FFFFFF" stroke-width="2" stroke-linecap="round" stroke-linejoin="round" stroke-miterlimit="10" x1="31" y1="51.125" x2="24.625" y2="51.125"/>
<line fill="none" stroke="#FFFFFF" stroke-width="2" stroke-linecap="round" stroke-linejoin="round" stroke-miterlimit="10" x1="66.5" y1="5.5" x2="63.625" y2="5.5"/>
<line fill="none" stroke="#FFFFFF" stroke-width="2" stroke-linecap="round" stroke-linejoin="round" stroke-miterlimit="10" x1="60.5" y1="5.5" x2="57.625" y2="5.5"/>
<line fill="none" stroke="#FFFFFF" stroke-width="2" stroke-linecap="round" stroke-linejoin="round" stroke-miterlimit="10" x1="54.5" y1="5.5" x2="51.625" y2="5.5"/>
<line fill="none" stroke="#FFFFFF" stroke-width="2" stroke-linecap="round" stroke-linejoin="round" stroke-miterlimit="10" x1="71.125" y1="10.375" x2="8.375" y2="10.375"/>
<line fill="none" stroke="#FFFFFF" stroke-width="2" stroke-linecap="round" stroke-linejoin="round" stroke-miterlimit="10" x1="27.5" y1="15.375" x2="28.25" y2="15.375"/>
<line fill="none" stroke="#FFFFFF" stroke-width="2" stroke-linecap="round" stroke-linejoin="round" stroke-miterlimit="10" x1="32.5" y1="15.375" x2="33.25" y2="15.375"/>
<line fill="none" stroke="#FFFFFF" stroke-width="2" stroke-linecap="round" stroke-linejoin="round" stroke-miterlimit="10" x1="37.5" y1="15.375" x2="38.25" y2="15.375"/>
<line fill="none" stroke="#FFFFFF" stroke-width="2" stroke-linecap="round" stroke-linejoin="round" stroke-miterlimit="10" x1="42.5" y1="15.375" x2="43.25" y2="15.375"/>
<line fill="none" stroke="#FFFFFF" stroke-width="2" stroke-linecap="round" stroke-linejoin="round" stroke-miterlimit="10" x1="27.625" y1="20.375" x2="43.375" y2="20.375"/>
<line fill="none" stroke="#FFFFFF" stroke-width="2" stroke-linecap="round" stroke-linejoin="round" stroke-miterlimit="10" x1="27.625" y1="25.375" x2="43.375" y2="25.375"/>
<line fill="none" stroke="#FFFFFF" stroke-width="2" stroke-linecap="round" stroke-linejoin="round" stroke-miterlimit="10" x1="27.625" y1="30.375" x2="43.375" y2="30.375"/>
<line fill="none" stroke="#FFFFFF" stroke-width="2" stroke-linecap="round" stroke-linejoin="round" stroke-miterlimit="10" x1="27.625" y1="35.375" x2="43.375" y2="35.375"/>
<line fill="none" stroke="#FFFFFF" stroke-width="2" stroke-linecap="round" stroke-linejoin="round" stroke-miterlimit="10" x1="27.625" y1="40.375" x2="35.375" y2="40.375"/>
<line fill="none" stroke="#FFFFFF" stroke-width="2" stroke-linecap="round" stroke-linejoin="round" stroke-miterlimit="10" x1="38.625" y1="40.375" x2="40.375" y2="40.375"/>
<path fill="none" stroke="#FFFFFF" stroke-width="2" stroke-linecap="round" stroke-linejoin="round" stroke-miterlimit="10" d="
	M50.625,15.25c1.5,0,12.125,0,13.25,0s2.375,0.875,2.375,2.375s0,5.125,0,6S65,25.5,63.75,25.5s-11.625,0-12.875,0
	s-2.75-1-2.75-2.375s0-5.25,0-6S49.125,15.25,50.625,15.25z"/>
<path fill="none" stroke="#FFFFFF" stroke-width="2" stroke-linecap="round" stroke-linejoin="round" stroke-miterlimit="10" d="
	M50.625,30.25c1.5,0,12.125,0,13.25,0s2.375,0.875,2.375,2.375s0,5.125,0,6S65,40.5,63.75,40.5s-11.625,0-12.875,0
	s-2.75-1-2.75-2.375s0-5.25,0-6S49.125,30.25,50.625,30.25z"/>
</svg>
