<?xml version="1.0" encoding="utf-8"?>
<!-- Generator: Adobe Illustrator 15.0.0, SVG Export Plug-In . SVG Version: 6.00 Build 0)  -->
<!DOCTYPE svg PUBLIC "-//W3C//DTD SVG 1.1//EN" "http://www.w3.org/Graphics/SVG/1.1/DTD/svg11.dtd">
<svg version="1.1" id="svg_x5F_image" xmlns="http://www.w3.org/2000/svg" xmlns:xlink="http://www.w3.org/1999/xlink" x="0px"
	 y="0px" width="76px" height="76px" viewBox="0 0 76 76" enable-background="new 0 0 76 76" xml:space="preserve">
<path fill="none" stroke="#FFFFFF" stroke-width="2" stroke-linecap="round" stroke-linejoin="round" stroke-miterlimit="10" d="
	M35.167,69.834c0,2.715-2.238,4.916-5,4.916H6.417c-2.761,0-5-2.201-5-4.916V49.349c0-2.716,2.239-4.917,5-4.917h23.75
	c2.762,0,5,2.201,5,4.917V69.834z"/>
<line fill="none" stroke="#FFFFFF" stroke-width="2" stroke-linecap="round" stroke-linejoin="round" stroke-miterlimit="10" x1="2.167" y1="65.736" x2="34.75" y2="65.736"/>
<line fill="none" stroke="#FFFFFF" stroke-width="2" stroke-linecap="round" stroke-linejoin="round" stroke-miterlimit="10" x1="20.667" y1="70.125" x2="24" y2="70.125"/>
<line fill="none" stroke="#FFFFFF" stroke-width="2" stroke-linecap="round" stroke-linejoin="round" stroke-miterlimit="10" x1="27.667" y1="70.125" x2="30" y2="70.125"/>
<path fill="none" stroke="#FFFFFF" stroke-width="2" stroke-linecap="round" stroke-linejoin="round" stroke-miterlimit="10" d="
	M22.25,51.889c0,0-0.417-2.376-3.917-2.376v-1.804v1.804c0,0-4,0.164-4,3.195c0,3.032,7.917,1.475,7.917,4.834
	c0,3.36-3.917,2.868-3.917,2.868v2.049v-1.988c0,0-4.25-0.47-4.25-2.929"/>
<path fill="none" stroke="#FFFFFF" stroke-width="2" stroke-linecap="round" stroke-linejoin="round" stroke-miterlimit="10" d="
	M74.834,69.834c0,2.715-2.238,4.916-5,4.916h-23.75c-2.762,0-5-2.201-5-4.916V49.349c0-2.716,2.238-4.917,5-4.917h23.75
	c2.762,0,5,2.201,5,4.917V69.834z"/>
<line fill="none" stroke="#FFFFFF" stroke-width="2" stroke-linecap="round" stroke-linejoin="round" stroke-miterlimit="10" x1="41.834" y1="65.736" x2="74.375" y2="65.736"/>
<line fill="none" stroke="#FFFFFF" stroke-width="2" stroke-linecap="round" stroke-linejoin="round" stroke-miterlimit="10" x1="60.334" y1="70.125" x2="63.666" y2="70.125"/>
<line fill="none" stroke="#FFFFFF" stroke-width="2" stroke-linecap="round" stroke-linejoin="round" stroke-miterlimit="10" x1="67.334" y1="70.125" x2="69.666" y2="70.125"/>
<path fill="none" stroke="#FFFFFF" stroke-width="2" stroke-linecap="round" stroke-linejoin="round" stroke-miterlimit="10" d="
	M61.916,51.889c0,0-0.416-2.376-3.916-2.376v-1.804v1.804c0,0-4,0.164-4,3.195c0,3.032,7.916,1.475,7.916,4.834
	c0,3.36-3.916,2.868-3.916,2.868v2.049v-1.988c0,0-4.25-0.47-4.25-2.929"/>
<line fill="none" stroke="#FFFFFF" stroke-width="2" stroke-linecap="round" stroke-linejoin="round" stroke-miterlimit="10" x1="41.084" y1="49.349" x2="35.167" y2="49.349"/>
<path fill="none" stroke="#FFFFFF" stroke-width="2" stroke-linecap="round" stroke-linejoin="round" stroke-miterlimit="10" d="
	M22.5,44.432c0,0-9-7.047-9-19.83C13.5,11.819,24.667,1.167,38,1.167S62.667,11.819,62.667,24.93S52.5,44.268,52.5,44.268"/>
<line fill="none" stroke="#FFFFFF" stroke-width="2" stroke-linecap="round" stroke-linejoin="round" stroke-miterlimit="10" x1="19.167" y1="10.017" x2="25.667" y2="15.917"/>
<path fill="none" stroke="#FFFFFF" stroke-width="2" stroke-linecap="round" stroke-linejoin="round" stroke-miterlimit="10" d="
	M28.333,20.177c0,0,4.167,0,5.5,0s4-4.097,5.833-4.097s5.666,5.572,7.333,5.572s4.916-6.145,6-7.21s5.334-2.786,5.334-2.786"/>
<path fill="none" stroke="#FFFFFF" stroke-width="2" stroke-linecap="round" stroke-linejoin="round" stroke-miterlimit="10" d="
	M61.5,17.883c0,0-8.166,6.063-8.166,7.211s8.166,6.883,8.166,6.883"/>
<path fill="none" stroke="#FFFFFF" stroke-width="2" stroke-linecap="round" stroke-linejoin="round" stroke-miterlimit="10" d="
	M58,39.023c0,0-3.916-3.85-5.166-5.08C51.584,32.714,50,33.288,49,33.288"/>
<path fill="none" stroke="#FFFFFF" stroke-width="2" stroke-linecap="round" stroke-linejoin="round" stroke-miterlimit="10" d="
	M45.5,33.288c0,0-2.166,0.492-2.666,0c-0.5-0.492-4.167-6.064-5.5-6.064s-7.333,0-8.333,0s-3.167,3.277-3.167,3.277"/>
<line fill="none" stroke="#FFFFFF" stroke-width="2" stroke-linecap="round" stroke-linejoin="round" stroke-miterlimit="10" x1="23.5" y1="33.616" x2="18" y2="39.023"/>
<path fill="none" stroke="#FFFFFF" stroke-width="2" stroke-linecap="round" stroke-linejoin="round" stroke-miterlimit="10" d="
	M14.688,31.977c0,0,7.479-5.408,7.479-7.21s-7.5-7.211-7.5-7.211"/>
<path fill="none" stroke="#FFFFFF" stroke-width="2" stroke-linecap="round" stroke-linejoin="round" stroke-miterlimit="10" d="
	M8,19.03c0,0-4.5,3.769,0,9.177"/>
<path fill="none" stroke="#FFFFFF" stroke-width="2" stroke-linecap="round" stroke-linejoin="round" stroke-miterlimit="10" d="
	M4.5,15.425c0,0-6.667,8.521,0,17.043"/>
<path fill="none" stroke="#FFFFFF" stroke-width="2" stroke-linecap="round" stroke-linejoin="round" stroke-miterlimit="10" d="
	M68.371,19.03c0,0,4.5,3.769,0,9.177"/>
<path fill="none" stroke="#FFFFFF" stroke-width="2" stroke-linecap="round" stroke-linejoin="round" stroke-miterlimit="10" d="
	M71.871,15.425c0,0,6.666,8.521,0,17.043"/>
<line fill="none" stroke="#FFFFFF" stroke-width="2" stroke-linecap="round" stroke-linejoin="round" stroke-miterlimit="10" x1="12.667" y1="39.352" x2="10.667" y2="39.352"/>
<line fill="none" stroke="#FFFFFF" stroke-width="2" stroke-linecap="round" stroke-linejoin="round" stroke-miterlimit="10" x1="7.667" y1="39.352" x2="5.667" y2="39.352"/>
<line fill="none" stroke="#FFFFFF" stroke-width="2" stroke-linecap="round" stroke-linejoin="round" stroke-miterlimit="10" x1="3" y1="39.352" x2="1" y2="39.352"/>
<line fill="none" stroke="#FFFFFF" stroke-width="2" stroke-linecap="round" stroke-linejoin="round" stroke-miterlimit="10" x1="63.334" y1="39.352" x2="65.334" y2="39.352"/>
<line fill="none" stroke="#FFFFFF" stroke-width="2" stroke-linecap="round" stroke-linejoin="round" stroke-miterlimit="10" x1="68.334" y1="39.352" x2="70.334" y2="39.352"/>
<line fill="none" stroke="#FFFFFF" stroke-width="2" stroke-linecap="round" stroke-linejoin="round" stroke-miterlimit="10" x1="73.001" y1="39.352" x2="75.001" y2="39.352"/>
</svg>
