<?xml version="1.0" encoding="utf-8"?>
<!-- Generator: Adobe Illustrator 15.0.0, SVG Export Plug-In . SVG Version: 6.00 Build 0)  -->
<!DOCTYPE svg PUBLIC "-//W3C//DTD SVG 1.1//EN" "http://www.w3.org/Graphics/SVG/1.1/DTD/svg11.dtd">
<svg version="1.1" id="svg_x5F_image" xmlns="http://www.w3.org/2000/svg" xmlns:xlink="http://www.w3.org/1999/xlink" x="0px"
	 y="0px" width="76px" height="76px" viewBox="0 0 76 76" enable-background="new 0 0 76 76" xml:space="preserve">
<path fill="none" stroke="#FFFFFF" stroke-width="2" stroke-linecap="round" stroke-linejoin="round" stroke-miterlimit="10" d="
	M74.833,70.251c0,2.438-1.978,4.417-4.417,4.417H5.917c-2.439,0-4.417-1.979-4.417-4.417l0,0c0-2.438,1.978-4.417,4.417-4.417
	c0,0,20.416,0,21.416,0s1.335,3,2.334,3s15.499,0,16.666,0s0.668-3,2.334-3s21.749,0,21.749,0
	C72.855,65.834,74.833,67.813,74.833,70.251L74.833,70.251z"/>
<path fill="none" stroke="#FFFFFF" stroke-width="2" stroke-linecap="round" stroke-linejoin="round" stroke-miterlimit="10" d="
	M5.917,65.834c0,0,0-37.334,0-42S9.667,18,11.167,18S19,18,19,18"/>
<path fill="none" stroke="#FFFFFF" stroke-width="2" stroke-linecap="round" stroke-linejoin="round" stroke-miterlimit="10" d="
	M9.75,65.625c0,0,0-39.375,0-41.125s1.375-2.625,2.25-2.625s5,0,5,0"/>
<path fill="none" stroke="#FFFFFF" stroke-width="2" stroke-linecap="round" stroke-linejoin="round" stroke-miterlimit="10" d="
	M57.333,18c0,0,5.437,0,8.167,0s5.167,1.334,5.167,5.167s0,42.667,0,42.667"/>
<path fill="none" stroke="#FFFFFF" stroke-width="2" stroke-linecap="round" stroke-linejoin="round" stroke-miterlimit="10" d="
	M58.875,21.875c0,0,3.751,0,5.125,0s2.5,0.625,2.5,2.5s0,41.25,0,41.25"/>
<path fill="none" stroke="#FFFFFF" stroke-width="2" stroke-linecap="round" stroke-linejoin="round" stroke-miterlimit="10" d="
	M18.625,65.625c0,0,0-4.625,0-6.625s1.5-2.875,2.875-2.875s31.416,0,33.333,0s3.229,1.167,3.229,3.229c0,2.063,0,6.229,0,6.229"/>
<line fill="none" stroke="#FFFFFF" stroke-width="2" stroke-linecap="round" stroke-linejoin="round" stroke-miterlimit="10" x1="24.667" y1="61.167" x2="27" y2="61.167"/>
<line fill="none" stroke="#FFFFFF" stroke-width="2" stroke-linecap="round" stroke-linejoin="round" stroke-miterlimit="10" x1="30.667" y1="61.167" x2="33" y2="61.167"/>
<line fill="none" stroke="#FFFFFF" stroke-width="2" stroke-linecap="round" stroke-linejoin="round" stroke-miterlimit="10" x1="36.667" y1="61.167" x2="39" y2="61.167"/>
<line fill="none" stroke="#FFFFFF" stroke-width="2" stroke-linecap="round" stroke-linejoin="round" stroke-miterlimit="10" x1="42.666" y1="61.167" x2="45" y2="61.167"/>
<line fill="none" stroke="#FFFFFF" stroke-width="2" stroke-linecap="round" stroke-linejoin="round" stroke-miterlimit="10" x1="48.666" y1="61.167" x2="51" y2="61.167"/>
<circle fill="none" stroke="#FFFFFF" stroke-width="2" stroke-linecap="round" stroke-linejoin="round" stroke-miterlimit="10" cx="38.188" cy="26.188" r="4.563"/>
<line fill="none" stroke="#FFFFFF" stroke-width="2" stroke-linecap="round" stroke-linejoin="round" stroke-miterlimit="10" x1="38.188" y1="30.75" x2="38.188" y2="37.938"/>
<path fill="none" stroke="#FFFFFF" stroke-width="2" stroke-linecap="round" stroke-linejoin="round" stroke-miterlimit="10" d="
	M41,49.667c0,0-14.333,0-15.5,0s-2.5-1-2.5-2.5c0-0.306,0-5.001,0-5.001h16.313H23c0,0,0-22.48,0-23c0-0.833,0-3,2-3
	s3.583,0,3.583,0s0-5.333,0-8.5S31.5,1,38.25,1C47,1,48.667,5.5,48.667,7.583s-1.001,3.333-2.834,3.333S43,9.667,43,8.75
	s-0.667-2.917-4.833-2.917s-4.583,1.916-4.583,4.583s0,5.75,0,5.75h-5.167c0,0,21.5,0,22.583,0s2.417,0.5,2.417,2.167
	s0,11.854,0,11.854"/>
<path fill="none" stroke="#FFFFFF" stroke-width="2" stroke-linecap="round" stroke-linejoin="round" stroke-miterlimit="10" d="
	M61.375,39.375c0.563,1.217,0.813,2.259,0.813,3.688c0,5.281-4.28,9.563-9.563,9.563s-9.563-4.281-9.563-9.563
	c0-5.281,4.28-9.563,9.563-9.563c1.77,0,3.426,0.48,4.848,1.318"/>
<path fill="none" stroke="#FFFFFF" stroke-width="2" stroke-linecap="round" stroke-linejoin="round" stroke-miterlimit="10" d="
	M47.75,42.5c0,0,1.719,1.719,2.25,2.25s1.75,1.313,2.938,0c1.188-1.313,6.875-8.313,6.875-8.313"/>
<line fill="none" stroke="#FFFFFF" stroke-width="2" stroke-linecap="round" stroke-linejoin="round" stroke-miterlimit="10" x1="5" y1="12" x2="9.333" y2="12"/>
<line fill="none" stroke="#FFFFFF" stroke-width="2" stroke-linecap="round" stroke-linejoin="round" stroke-miterlimit="10" x1="15" y1="12" x2="19.333" y2="12"/>
<line fill="none" stroke="#FFFFFF" stroke-width="2" stroke-linecap="round" stroke-linejoin="round" stroke-miterlimit="10" x1="57.167" y1="12" x2="61.501" y2="12"/>
<line fill="none" stroke="#FFFFFF" stroke-width="2" stroke-linecap="round" stroke-linejoin="round" stroke-miterlimit="10" x1="67.167" y1="12" x2="71.501" y2="12"/>
</svg>
