<?xml version="1.0" encoding="utf-8"?>
<!-- Generator: Adobe Illustrator 15.0.0, SVG Export Plug-In . SVG Version: 6.00 Build 0)  -->
<!DOCTYPE svg PUBLIC "-//W3C//DTD SVG 1.1//EN" "http://www.w3.org/Graphics/SVG/1.1/DTD/svg11.dtd">
<svg version="1.1" id="svg_x5F_image" xmlns="http://www.w3.org/2000/svg" xmlns:xlink="http://www.w3.org/1999/xlink" x="0px"
	 y="0px" width="76px" height="76px" viewBox="0 0 76 76" enable-background="new 0 0 76 76" xml:space="preserve">
<circle fill="none" stroke="#FFFFFF" stroke-width="2" stroke-linecap="round" stroke-linejoin="round" stroke-miterlimit="10" cx="38.48" cy="38.612" r="16.917"/>
<circle fill="none" stroke="#FFFFFF" stroke-width="2" stroke-linecap="round" stroke-linejoin="round" stroke-miterlimit="10" cx="38.48" cy="38.612" r="21.417"/>
<path fill="none" stroke="#FFFFFF" stroke-width="2" stroke-linecap="round" stroke-linejoin="round" stroke-miterlimit="10" d="
	M60.577,53.167c0,0,10.9,10.9,12.551,12.55c1.649,1.65,2.476,5.068,0.178,7.366c-2.299,2.298-5.6,1.943-7.543-0.001
	c-1.944-1.943-12.551-12.55-12.551-12.55L60.577,53.167z"/>
<line fill="none" stroke="#FFFFFF" stroke-width="2" stroke-linecap="round" stroke-linejoin="round" stroke-miterlimit="10" x1="52.327" y1="55.287" x2="54.921" y2="57.881"/>
<line fill="none" stroke="#FFFFFF" stroke-width="2" stroke-linecap="round" stroke-linejoin="round" stroke-miterlimit="10" x1="57.748" y1="55.052" x2="55.155" y2="52.458"/>
<path fill="none" stroke="#FFFFFF" stroke-width="2" stroke-linecap="round" stroke-linejoin="round" stroke-miterlimit="10" d="
	M39.615,26.533c0,0,2.422-0.174,4.417,1.404"/>
<path fill="none" stroke="#FFFFFF" stroke-width="2" stroke-linecap="round" stroke-linejoin="round" stroke-miterlimit="10" d="
	M47.367,30.267c0,0,5.205,5.019,2.68,10.733"/>
<path fill="none" stroke="#FFFFFF" stroke-width="2" stroke-linecap="round" stroke-linejoin="round" stroke-miterlimit="10" d="
	M41.375,60.25c0,0,0,10.25,0,11.917s-1.666,2.667-3.875,2.667s-32.125,0-33.625,0s-2.917-1.125-2.917-2.917s0-65.667,0-67.417
	S1.75,1.25,4.125,1.25s31.625,0,33.375,0s3.875,1.25,3.875,3.25s0,12.5,0,12.5"/>
<line fill="none" stroke="#FFFFFF" stroke-width="2" stroke-linecap="round" stroke-linejoin="round" stroke-miterlimit="10" x1="41.375" y1="32" x2="41.375" y2="51.375"/>
<path fill="none" stroke="#FFFFFF" stroke-width="2" stroke-linecap="round" stroke-linejoin="round" stroke-miterlimit="10" d="
	M23.336,23c0,0-13.586,0-14.461,0s-2.75-0.25-2.75-2.875s0-9.875,0-11.25S7.375,6.125,9,6.125s23.125,0,24.5,0s2.75,1.5,2.75,2.5
	s0,8.5,0,8.5"/>
<line fill="none" stroke="#FFFFFF" stroke-width="2" stroke-linecap="round" stroke-linejoin="round" stroke-miterlimit="10" x1="6.125" y1="27.125" x2="20" y2="27.125"/>
<line fill="none" stroke="#FFFFFF" stroke-width="2" stroke-linecap="round" stroke-linejoin="round" stroke-miterlimit="10" x1="31.75" y1="27.125" x2="36.25" y2="27.125"/>
<line fill="none" stroke="#FFFFFF" stroke-width="2" stroke-linecap="round" stroke-linejoin="round" stroke-miterlimit="10" x1="6.125" y1="31.125" x2="18" y2="31.125"/>
<line fill="none" stroke="#FFFFFF" stroke-width="2" stroke-linecap="round" stroke-linejoin="round" stroke-miterlimit="10" x1="28.125" y1="31.125" x2="36.25" y2="31.125"/>
<line fill="none" stroke="#FFFFFF" stroke-width="2" stroke-linecap="round" stroke-linejoin="round" stroke-miterlimit="10" x1="6.125" y1="35.125" x2="16.875" y2="35.125"/>
<line fill="none" stroke="#FFFFFF" stroke-width="2" stroke-linecap="round" stroke-linejoin="round" stroke-miterlimit="10" x1="26.5" y1="35.125" x2="36.25" y2="35.125"/>
<line fill="none" stroke="#FFFFFF" stroke-width="2" stroke-linecap="round" stroke-linejoin="round" stroke-miterlimit="10" x1="6.125" y1="39.125" x2="16.625" y2="39.125"/>
<line fill="none" stroke="#FFFFFF" stroke-width="2" stroke-linecap="round" stroke-linejoin="round" stroke-miterlimit="10" x1="6.125" y1="43.125" x2="17" y2="43.125"/>
<line fill="none" stroke="#FFFFFF" stroke-width="2" stroke-linecap="round" stroke-linejoin="round" stroke-miterlimit="10" x1="6.125" y1="47.125" x2="18.5" y2="47.125"/>
<line fill="none" stroke="#FFFFFF" stroke-width="2" stroke-linecap="round" stroke-linejoin="round" stroke-miterlimit="10" x1="6.125" y1="55.125" x2="24" y2="55.125"/>
<line fill="none" stroke="#FFFFFF" stroke-width="2" stroke-linecap="round" stroke-linejoin="round" stroke-miterlimit="10" x1="6.125" y1="59.125" x2="10.375" y2="59.125"/>
<line fill="none" stroke="#FFFFFF" stroke-width="2" stroke-linecap="round" stroke-linejoin="round" stroke-miterlimit="10" x1="9.875" y1="66.875" x2="18.167" y2="66.875"/>
<line fill="none" stroke="#FFFFFF" stroke-width="2" stroke-linecap="round" stroke-linejoin="round" stroke-miterlimit="10" x1="13.125" y1="59.125" x2="18" y2="59.125"/>
<line fill="none" stroke="#FFFFFF" stroke-width="2" stroke-linecap="round" stroke-linejoin="round" stroke-miterlimit="10" x1="6.125" y1="51.125" x2="12.5" y2="51.125"/>
<line fill="none" stroke="#FFFFFF" stroke-width="2" stroke-linecap="round" stroke-linejoin="round" stroke-miterlimit="10" x1="30" y1="47.125" x2="36.25" y2="47.125"/>
<line fill="none" stroke="#FFFFFF" stroke-width="2" stroke-linecap="round" stroke-linejoin="round" stroke-miterlimit="10" x1="27.25" y1="43.125" x2="32" y2="43.125"/>
<line fill="none" stroke="#FFFFFF" stroke-width="2" stroke-linecap="round" stroke-linejoin="round" stroke-miterlimit="10" x1="35.25" y1="43.125" x2="36.25" y2="43.125"/>
<line fill="none" stroke="#FFFFFF" stroke-width="2" stroke-linecap="round" stroke-linejoin="round" stroke-miterlimit="10" x1="26.5" y1="39.125" x2="29.25" y2="39.125"/>
<path fill="none" stroke="#FFFFFF" stroke-width="2" stroke-linecap="round" stroke-linejoin="round" stroke-miterlimit="10" d="
	M7.25,63c1.375,0,12.125,0,13.625,0s1.625,0.875,1.625,1.75s0,2.875,0,3.875S22.75,70.5,21,70.5s-12.5,0-13.75,0
	s-1.5-0.625-1.5-1.875s0-2.875,0-4S6,63,7.25,63z"/>
<path fill="none" stroke="#FFFFFF" stroke-width="2" stroke-linecap="round" stroke-linejoin="round" stroke-miterlimit="10" d="
	M27.988,63c1.375,0,5.125,0,6.625,0s1.625,0.875,1.625,1.75s0,2.875,0,3.875s0.25,1.875-1.5,1.875s-5.5,0-6.75,0
	s-1.5-0.625-1.5-1.875s0-2.875,0-4S26.738,63,27.988,63z"/>
<path fill="none" stroke="#FFFFFF" stroke-width="2" stroke-linecap="round" stroke-linejoin="round" stroke-miterlimit="10" d="
	M45.375,8c0,0,15.25,0,17.875,0s4.125,1.875,4.125,4.625s0,46.75,0,46.75"/>
<line fill="none" stroke="#FFFFFF" stroke-width="2" stroke-linecap="round" stroke-linejoin="round" stroke-miterlimit="10" x1="59.625" y1="67.25" x2="45.5" y2="67.25"/>
<line fill="none" stroke="#FFFFFF" stroke-width="2" stroke-linecap="round" stroke-linejoin="round" stroke-miterlimit="10" x1="45.375" y1="13.667" x2="61.542" y2="13.667"/>
<line fill="none" stroke="#FFFFFF" stroke-width="2" stroke-linecap="round" stroke-linejoin="round" stroke-miterlimit="10" x1="45.375" y1="17.667" x2="61.542" y2="17.667"/>
<line fill="none" stroke="#FFFFFF" stroke-width="2" stroke-linecap="round" stroke-linejoin="round" stroke-miterlimit="10" x1="52.375" y1="21.667" x2="61.542" y2="21.667"/>
<line fill="none" stroke="#FFFFFF" stroke-width="2" stroke-linecap="round" stroke-linejoin="round" stroke-miterlimit="10" x1="59.375" y1="31.667" x2="61.542" y2="31.667"/>
<line fill="none" stroke="#FFFFFF" stroke-width="2" stroke-linecap="round" stroke-linejoin="round" stroke-miterlimit="10" x1="60.375" y1="35.667" x2="61.542" y2="35.667"/>
<line fill="none" stroke="#FFFFFF" stroke-width="2" stroke-linecap="round" stroke-linejoin="round" stroke-miterlimit="10" x1="60.375" y1="39.666" x2="61.542" y2="39.666"/>
<line fill="none" stroke="#FFFFFF" stroke-width="2" stroke-linecap="round" stroke-linejoin="round" stroke-miterlimit="10" x1="60.375" y1="43.666" x2="61.542" y2="43.666"/>
</svg>
