<?xml version="1.0" encoding="utf-8"?>
<!-- Generator: Adobe Illustrator 15.0.0, SVG Export Plug-In . SVG Version: 6.00 Build 0)  -->
<!DOCTYPE svg PUBLIC "-//W3C//DTD SVG 1.1//EN" "http://www.w3.org/Graphics/SVG/1.1/DTD/svg11.dtd">
<svg version="1.1" id="svg_x5F_image" xmlns="http://www.w3.org/2000/svg" xmlns:xlink="http://www.w3.org/1999/xlink" x="0px"
	 y="0px" width="76px" height="76px" viewBox="0 0 76 76" enable-background="new 0 0 76 76" xml:space="preserve">
<path fill="none" stroke="#FFFFFF" stroke-width="2" stroke-linecap="round" stroke-linejoin="round" stroke-miterlimit="10" d="
	M1.5,66.667c0,0,6.167,0,7.333,0S11,66,11,64.5s0-18.667,0-20.5s-1-3.333-2.167-3.333s-4.667,0-5.667,0S1,40.166,1,38.5
	c0-1.667,0-31,0-32.833s-1-4.5,3.833-4.5s64.167,0,66.333,0s3.667,1,3.667,4.333s0,31.334,0,32.833s-0.333,2.5-2.5,2.5
	s-3.001,0-4.834,0s-2.166,1.168-2.166,2.834s0,19.167,0,20.5s0.834,2.666,2.5,2.666s6.833,0,6.833,0"/>
<line fill="none" stroke="#FFFFFF" stroke-width="2" stroke-linecap="round" stroke-linejoin="round" stroke-miterlimit="10" x1="52.334" y1="6.5" x2="55.5" y2="6.5"/>
<line fill="none" stroke="#FFFFFF" stroke-width="2" stroke-linecap="round" stroke-linejoin="round" stroke-miterlimit="10" x1="59.334" y1="6.5" x2="62.5" y2="6.5"/>
<line fill="none" stroke="#FFFFFF" stroke-width="2" stroke-linecap="round" stroke-linejoin="round" stroke-miterlimit="10" x1="66.334" y1="6.5" x2="69.5" y2="6.5"/>
<line fill="none" stroke="#FFFFFF" stroke-width="2" stroke-linecap="round" stroke-linejoin="round" stroke-miterlimit="10" x1="1.5" y1="11.333" x2="74.334" y2="11.333"/>
<path fill="none" stroke="#FFFFFF" stroke-width="2" stroke-linecap="round" stroke-linejoin="round" stroke-miterlimit="10" d="
	M11,44.5c0,0,5.375,0,6.375,0s2.875-1.375,3.875-2.375S25,39.25,27,39.25s5.125,0,6.5,0s4.5,2.625,4.5,2.625s2.5-2.375,4.25-2.375
	s6.125,0,8.25,0s4,1.875,5,2.875s2.375,1.75,3.375,1.75s6.375,0,6.375,0"/>
<polyline fill="none" stroke="#FFFFFF" stroke-width="2" stroke-linecap="round" stroke-linejoin="round" stroke-miterlimit="10" points="
	22.938,40.688 22.656,40.094 18.156,38.594 18.156,33.719 22.656,32.344 23.406,30.219 "/>
<polyline fill="none" stroke="#FFFFFF" stroke-width="2" stroke-linecap="round" stroke-linejoin="round" stroke-miterlimit="10" points="
	23.658,29.617 24.542,27.672 22.42,23.43 25.867,19.983 30.021,22.192 32.055,21.22 "/>
<polyline fill="none" stroke="#FFFFFF" stroke-width="2" stroke-linecap="round" stroke-linejoin="round" stroke-miterlimit="10" points="
	32.375,21 34.375,20.25 35.875,15.75 40.75,15.75 42.125,20.25 44.25,21 "/>
<polyline fill="none" stroke="#FFFFFF" stroke-width="2" stroke-linecap="round" stroke-linejoin="round" stroke-miterlimit="10" points="
	44.883,21.22 46.828,22.104 51.07,19.983 54.518,23.43 52.308,27.584 53.279,29.617 "/>
<polyline fill="none" stroke="#FFFFFF" stroke-width="2" stroke-linecap="round" stroke-linejoin="round" stroke-miterlimit="10" points="
	53.531,30.219 54.282,32.22 58.781,33.72 58.781,38.595 54.281,39.969 53.938,40.625 "/>
<path fill="none" stroke="#FFFFFF" stroke-width="2" stroke-linecap="round" stroke-linejoin="round" stroke-miterlimit="10" d="
	M28.787,38.927c-0.188-0.757-0.287-1.549-0.287-2.364c0-5.419,4.393-9.813,9.813-9.813c5.419,0,9.813,4.393,9.813,9.813
	c0,0.869-0.113,1.711-0.325,2.513"/>
<path fill="none" stroke="#FFFFFF" stroke-width="2" stroke-linecap="round" stroke-linejoin="round" stroke-miterlimit="10" d="
	M33.902,39.049c-0.415-0.734-0.652-1.583-0.652-2.486c0-2.796,2.267-5.063,5.063-5.063s5.063,2.267,5.063,5.063
	c0,1.014-0.298,1.958-0.812,2.75"/>
<line fill="none" stroke="#FFFFFF" stroke-width="2" stroke-linecap="round" stroke-linejoin="round" stroke-miterlimit="10" x1="15.75" y1="25.25" x2="5" y2="25.25"/>
<line fill="none" stroke="#FFFFFF" stroke-width="2" stroke-linecap="round" stroke-linejoin="round" stroke-miterlimit="10" x1="9.75" y1="30.25" x2="5" y2="30.25"/>
<line fill="none" stroke="#FFFFFF" stroke-width="2" stroke-linecap="round" stroke-linejoin="round" stroke-miterlimit="10" x1="60.25" y1="25.25" x2="71" y2="25.25"/>
<line fill="none" stroke="#FFFFFF" stroke-width="2" stroke-linecap="round" stroke-linejoin="round" stroke-miterlimit="10" x1="66.25" y1="30.25" x2="71" y2="30.25"/>
<path fill="none" stroke="#FFFFFF" stroke-width="2" stroke-linecap="round" stroke-linejoin="round" stroke-miterlimit="10" d="
	M38,41.875c0,0-8.75,7.125-9.625,7.75s-1.5,1.875-0.75,2.875s3.625,3.5,7.5,1.25s7-5.25,7-5.25"/>
<line fill="none" stroke="#FFFFFF" stroke-width="2" stroke-linecap="round" stroke-linejoin="round" stroke-miterlimit="10" x1="39.584" y1="50.833" x2="52.917" y2="66.583"/>
<path fill="none" stroke="#FFFFFF" stroke-width="2" stroke-linecap="round" stroke-linejoin="round" stroke-miterlimit="10" d="
	M52.813,66.313c0,0,0,2.563-1.125,3.625S48.313,70.563,47,69.25s-4.5-5.125-4.5-5.125"/>
<path fill="none" stroke="#FFFFFF" stroke-width="2" stroke-linecap="round" stroke-linejoin="round" stroke-miterlimit="10" d="
	M46.75,69.25c0,0-0.563,1.813-1.5,2.625s-2.75,1.125-4-0.125s-4.625-5.438-4.625-5.438"/>
<path fill="none" stroke="#FFFFFF" stroke-width="2" stroke-linecap="round" stroke-linejoin="round" stroke-miterlimit="10" d="
	M40.313,71c0,0-0.5,1.813-1.875,2.625s-2.625,0.813-3.563-0.375s-2.813-3.438-2.813-3.438"/>
<path fill="none" stroke="#FFFFFF" stroke-width="2" stroke-linecap="round" stroke-linejoin="round" stroke-miterlimit="10" d="
	M33.688,72.5c0,0-1.688,2.188-3.313,2.188s-2.938-1.375-3.563-2.188s-8.438-9.313-8.438-9.313h-7.313"/>
<path fill="none" stroke="#FFFFFF" stroke-width="2" stroke-linecap="round" stroke-linejoin="round" stroke-miterlimit="10" d="
	M52.917,66.583c0,0,4.083-2.917,4.75-3.25h7.667"/>
<line fill="none" stroke="#FFFFFF" stroke-width="2" stroke-linecap="round" stroke-linejoin="round" stroke-miterlimit="10" x1="69.75" y1="62" x2="71.125" y2="62"/>
<line fill="none" stroke="#FFFFFF" stroke-width="2" stroke-linecap="round" stroke-linejoin="round" stroke-miterlimit="10" x1="6.875" y1="62" x2="4.875" y2="62"/>
</svg>
